<?xml version="1.0" ?><svg height="256" viewBox="0 0 256 256" width="256" xmlns="http://www.w3.org/2000/svg"><defs><style>
      .cls-1 {
        fill: #0089c1;
      }

      .cls-2 {
        fill: #fff;
        fill-rule: evenodd;
      }
    </style></defs><g data-name="ripple xrp coin" id="ripple_xrp_coin"><g data-name="ripple xrp" id="ripple_xrp"><circle class="cls-1" cx="128" cy="128" data-name="Эллипс 21" id="Эллипс_21" r="128"/><path class="cls-2" d="M883.764,1703.5l0.062,0.06s-0.279-.02-0.744-0.03c-0.183.01-.36,0.03-0.543,0.03-0.111,0-.218-0.02-0.329-0.02-3.95.13-13.827,1.55-13.827,12.82,0,14.08,15.443,14.08,15.443,14.08v0.06a33.267,33.267,0,1,1-34.748,33.22,32.984,32.984,0,0,1,6.573-19.75c0.5-2.14,1.871-10.25-4-16.09-5.3-5.27-15.567-.92-19.877,3.78a31.977,31.977,0,0,1-1.947,3.57,3.149,3.149,0,0,0-.054.33c-0.035-.02-0.068-0.05-0.1-0.07a33.265,33.265,0,1,1,.935-34.17l0.455-.32s5.148,7.68,11.582,7.68,12.87-3.25,12.87-12.8a21.767,21.767,0,0,0-1.2-7.78c-0.582-.91-1.118-1.84-1.611-2.81a4.15,4.15,0,0,0-1.051-.93l0.455-.3a32.955,32.955,0,0,1-3.029-13.78A33.462,33.462,0,1,1,883.764,1703.5Z" data-name="Фигура 5" id="Фигура_5" transform="translate(-728 -1589)"/></g></g></svg>